<?xml version="1.0" encoding="UTF-8" standalone="no"?>
<!-- Created with Inkscape (http://www.inkscape.org/) -->

<svg
   xmlns:dc="http://purl.org/dc/elements/1.1/"
   xmlns:cc="http://creativecommons.org/ns#"
   xmlns:rdf="http://www.w3.org/1999/02/22-rdf-syntax-ns#"
   xmlns:svg="http://www.w3.org/2000/svg"
   xmlns="http://www.w3.org/2000/svg"
   xmlns:sodipodi="http://sodipodi.sourceforge.net/DTD/sodipodi-0.dtd"
   xmlns:inkscape="http://www.inkscape.org/namespaces/inkscape"
   width="999.99994"
   height="313.57068"
   viewBox="0 0 99.999994 31.357069"
   version="1.1"
   id="svg8"
   inkscape:version="0.92.4 (5da689c313, 2019-01-14)"
   sodipodi:docname="A.svg">
  <defs
     id="defs2" />
  <sodipodi:namedview
     id="base"
     pagecolor="#ffffff"
     bordercolor="#666666"
     borderopacity="1.0"
     inkscape:pageopacity="0.0"
     inkscape:pageshadow="2"
     inkscape:zoom="0.22437501"
     inkscape:cx="1652.8243"
     inkscape:cy="-566.3266"
     inkscape:document-units="px"
     inkscape:current-layer="layer1"
     showgrid="false"
     units="px"
     fit-margin-top="0"
     fit-margin-left="0"
     fit-margin-right="0"
     fit-margin-bottom="0"
     inkscape:window-width="1920"
     inkscape:window-height="1028"
     inkscape:window-x="-8"
     inkscape:window-y="-8"
     inkscape:window-maximized="1">
    <inkscape:grid
       type="xygrid"
       id="grid60"
       originx="0.59999436"
       originy="-475445.33" />
  </sodipodi:namedview>
  <metadata
     id="metadata5">
    <rdf:RDF>
      <cc:Work
         rdf:about="">
        <dc:format>image/svg+xml</dc:format>
        <dc:type
           rdf:resource="http://purl.org/dc/dcmitype/StillImage" />
        <dc:title></dc:title>
      </cc:Work>
    </rdf:RDF>
  </metadata>
  <g
     inkscape:label="Layer 1"
     inkscape:groupmode="layer"
     id="layer1"
     transform="translate(0.29999719,-33.355122)">
    <g
       id="layer1-2"
       transform="matrix(0.10335148,0,0,0.10335148,51.499543,61.747068)"
       style="opacity:1">
      <g
         id="g13535"
         transform="matrix(1.4866562,0,0,1.4866562,243.91105,-13.962026)">
        <path
           style="font-size:10px;letter-spacing:0;word-spacing:0;fill:#ec1b24;fill-rule:nonzero;stroke:none"
           id="path3591"
           d="M -501.19786,-175.39392 H -24.516425 V 28.68971 H -501.19786 Z"
           inkscape:connector-curvature="0" />
        <path
           style="font-size:10px;letter-spacing:0;word-spacing:0;fill:#ffffff;fill-rule:nonzero;stroke:none"
           id="path3593"
           d="m -341.90937,-73.347381 c 0,-33.324009 -27.00591,-59.041659 -60.70885,-59.041659 -33.7124,0 -60.71832,25.71765 -60.71832,59.041659 0,33.314598 27.00592,59.02276 60.71832,59.02276 33.70294,0 60.70885,-25.708162 60.70885,-59.02276 m -28.81517,0 c 0,17.921861 -15.40217,32.225276 -31.89368,32.225276 -16.68095,0 -31.90317,-14.303415 -31.90317,-32.225276 0,-17.931272 15.22222,-32.234689 31.90317,-32.234689 16.49151,0 31.89368,14.303417 31.89368,32.234689"
           inkscape:connector-curvature="0" />
        <path
           style="font-size:10px;letter-spacing:0;word-spacing:0;fill:#ffffff;fill-rule:nonzero;stroke:none"
           id="path3595"
           d="m -301.71785,-16.493775 h 27.91528 v -33.134572 h 20.83935 l 21.92875,33.134572 h 34.79221 L -224.328,-56.325406 c 13.22351,-5.797091 22.46859,-18.291242 22.46859,-33.683979 0,-22.639125 -16.67149,-40.201015 -42.04816,-40.201015 h -57.81028 z m 56.18104,-59.932137 h -28.26576 v -26.986918 h 28.26576 c 12.14367,0 15.77161,5.977034 15.77161,13.403445 0,7.606355 -3.62794,13.583473 -15.77161,13.583473"
           inkscape:connector-curvature="0" />
        <path
           style="font-size:10px;letter-spacing:0;word-spacing:0;fill:#ffffff;fill-rule:nonzero;stroke:none"
           id="path3597"
           d="m -154.92345,-16.560057 h 27.88681 v -38.28766 h 52.704655 v -26.778581 h -52.704655 v -21.805522 h 64.658895 v -26.77858 h -92.545705 z"
           inkscape:connector-curvature="0" />
        <path
           style="font-size:10px;letter-spacing:0;word-spacing:0;fill:#e2001a;fill-opacity:1;fill-rule:nonzero;stroke:none"
           id="path3603"
           d="M -501.19786,-175.39392 H -24.516425 V 28.689507 l -476.681435,2.03e-4 z"
           inkscape:connector-curvature="0"
           sodipodi:nodetypes="ccccc" />
        <path
           style="font-size:10px;letter-spacing:0;word-spacing:0;fill:#ffffff;fill-rule:nonzero;stroke:none"
           id="path3605"
           d="m -341.90937,-73.347381 c 0,-33.324009 -27.00591,-59.041659 -60.70885,-59.041659 -33.7124,0 -60.71832,25.71765 -60.71832,59.041659 0,33.314598 27.00592,59.02276 60.71832,59.02276 33.70294,0 60.70885,-25.708162 60.70885,-59.02276 m -28.81517,0 c 0,17.921861 -15.40217,32.225276 -31.89368,32.225276 -16.68095,0 -31.90317,-14.303415 -31.90317,-32.225276 0,-17.931272 15.22222,-32.234689 31.90317,-32.234689 16.49151,0 31.89368,14.303417 31.89368,32.234689"
           inkscape:connector-curvature="0" />
        <path
           style="font-size:10px;letter-spacing:0;word-spacing:0;fill:#ffffff;fill-rule:nonzero;stroke:none"
           id="path3607"
           d="m -301.71785,-16.493775 h 27.91528 v -33.134572 h 20.83935 l 21.92875,33.134572 h 34.79221 L -224.328,-56.325406 c 13.22351,-5.797091 22.46859,-18.291242 22.46859,-33.683979 0,-22.639125 -16.67149,-40.201015 -42.04816,-40.201015 h -57.81028 z m 56.18104,-59.932137 h -28.26576 v -26.986918 h 28.26576 c 12.14367,0 15.77161,5.977034 15.77161,13.403445 0,7.606355 -3.62794,13.583473 -15.77161,13.583473"
           inkscape:connector-curvature="0" />
        <path
           style="font-size:10px;letter-spacing:0;word-spacing:0;fill:#ffffff;fill-rule:nonzero;stroke:none"
           id="path3609"
           d="m -154.92345,-16.560057 h 27.88681 v -38.28766 h 52.704655 v -26.778581 h -52.704655 v -21.805522 h 64.658895 v -26.77858 h -92.545705 z"
           inkscape:connector-curvature="0" />
      </g>
    </g>
    <path
       style="opacity:1;fill:#22211f;fill-opacity:1;stroke:none;stroke-width:0.12562814px;stroke-linecap:butt;stroke-linejoin:miter;stroke-opacity:1"
       d="M 78.782918,33.355122 H 99.700002 V 64.712161 H 89.272866 V 43.782258 H 78.782918 Z"
       id="path62"
       inkscape:connector-curvature="0"
       sodipodi:nodetypes="ccccccc" />
  </g>
</svg>
